<?xml version="1.0" encoding="utf-8"?>
<!-- Generator: Adobe Illustrator 27.5.0, SVG Export Plug-In . SVG Version: 6.00 Build 0)  -->
<svg version="1.1" xmlns="http://www.w3.org/2000/svg" xmlns:xlink="http://www.w3.org/1999/xlink" x="0px" y="0px"
	 viewBox="0 0 3710 3710" style="enable-background:new 0 0 3710 3710;" xml:space="preserve">
<g id="Background">
	<g>
		<g>
			<rect style="fill:#FFFFFF;" width="3710" height="3710"/>
		</g>
	</g>
</g>
<g id="Illustration">
	<g>
		<path style="fill:#F4F7FA;" d="M1698.594,382.466c-329.422,5.593-839.101,125.989-985.806,435.384
			c-51.238,108.06-47.769,266.921-40.832,584.642c2.039,93.386,5.42,229.5,29.166,398.385
			c49.327,350.828,82.906,589.66,209.994,728.727c318.443,348.461,1468.737,338.391,1959.945-288.952
			c267.957-342.22,309.179-829.04,64.165-1231.371C2665.47,566.322,2139.612,374.977,1698.594,382.466z"/>
		<g>
			<g>
				<g>
					<g>
						
							<linearGradient id="SVGID_1_" gradientUnits="userSpaceOnUse" x1="193.6006" y1="2872.8264" x2="-1397.3541" y2="121.804" gradientTransform="matrix(-0.9938 0.1108 0.1108 0.9938 1795.7675 -262.3796)">
							<stop  offset="0" style="stop-color:#AA80F9"/>
							<stop  offset="0.9964" style="stop-color:#6165D7"/>
						</linearGradient>
						<path style="fill:url(#SVGID_1_);" d="M2504.16,2106.913c10.565,44.776,24.283,80.397,36.64,123.659
							c-191.478-29.999-381.566-23.815-575.751-53.876c145.945-207.057,273.574-291.858,224.669-581.487
							c-22.95-135.918-108.007-397.073-42.306-521.078c74.852-141.276,176.528-93.753,161.165-228.252
							c-24.012-210.221,96.275-418.451,368.271-305.761c268.449,111.221,186.198,860.994,9.044,1050.701
							C2567.494,1782.452,2448.99,1873.109,2504.16,2106.913z"/>
						<g>
							<defs>
								<path id="SVGID_00000096738206882525631580000013838245171481833370_" d="M2186.51,1572.36
									c-8.803-51.016-110.031-401.595-40.049-503.639c79.729-116.256,175.964-95,161.601-225.14
									c-22.448-203.403,96.278-417.69,368.711-303.956c268.88,112.25,185.848,862.523,9.335,1049.667
									c-120.396,211.434-234.806,254.824-182.344,531.838C2540.512,2315.163,2219.61,1764.17,2186.51,1572.36z"/>
							</defs>
							<clipPath id="SVGID_00000005970459990393471030000001479697352741572491_">
								<use xlink:href="#SVGID_00000096738206882525631580000013838245171481833370_"  style="overflow:visible;"/>
							</clipPath>
							<g style="clip-path:url(#SVGID_00000005970459990393471030000001479697352741572491_);">
								<path style="fill:#FCFDFE;" d="M2244.751,2179.836l-2.894-0.895c21.113-68.441,47.838-135.991,73.684-201.316l9.782-24.755
									c20.684-52.462,38.253-99.768,53.753-141.504c8.725-23.491,16.966-45.685,25.136-67.14
									c24.746-65.006,42.252-110.618,51.071-133.6c3.069-7.998,5.087-13.255,5.991-15.632
									c68.212-179.337,94.958-448.49,109.329-593.086c1.56-15.695,2.953-29.72,4.219-41.761
									c21.779-206.951,69.22-419.665,141.006-632.238l2.87,0.971c-71.715,212.357-119.109,424.853-140.864,631.585
									c-1.266,12.034-2.66,26.056-4.219,41.74c-14.383,144.738-41.155,414.148-109.51,593.864
									c-0.906,2.38-2.923,7.641-5.994,15.642c-8.821,22.978-26.323,68.587-51.071,133.589
									c-8.163,21.444-16.403,43.631-25.126,67.119c-15.505,41.75-33.081,89.07-53.774,141.56l-9.785,24.758
									C2292.533,2044.012,2265.83,2111.506,2244.751,2179.836z"/>
								<path style="fill:#FCFDFE;" d="M2373.807,1848.501l-2.876-0.944c39.332-120.327,37.015-277.665-6.695-455
									c-36.457-147.906-101.135-304.675-177.448-430.107l2.585-1.575c76.467,125.685,141.274,282.762,177.803,430.957
									C2411.022,1569.719,2413.316,1727.633,2373.807,1848.501z"/>
								<path style="fill:#FCFDFE;" d="M2568.506,1025.975c-16.725-108.519-47.299-215.671-76.866-319.294
									c-20.27-71.04-41.23-144.499-57.592-217.881l2.956-0.659c16.342,73.296,37.29,146.713,57.547,217.708
									c29.593,103.713,60.193,210.959,76.946,319.669L2568.506,1025.975z"/>
								<path style="fill:#FCFDFE;" d="M2522.76,1378.782l-2.668-1.43c72.575-135.55,231.386-284.178,339.853-318.066l0.902,2.887
									C2753.01,1095.867,2595.025,1243.815,2522.76,1378.782z"/>
							</g>
						</g>
					</g>
					<g>
						
							<linearGradient id="SVGID_00000116193643408867692470000010705625521198927248_" gradientUnits="userSpaceOnUse" x1="1864.4896" y1="-1513.3041" x2="2849.4712" y2="108.2295" gradientTransform="matrix(0.085 0.9964 -0.9964 0.085 1535.0977 -416.6062)">
							<stop  offset="0.0036" style="stop-color:#E38DDD"/>
							<stop  offset="1" style="stop-color:#9571F6"/>
						</linearGradient>
						<path style="fill:url(#SVGID_00000116193643408867692470000010705625521198927248_);" d="M2664.179,1486.711
							c-53.427,258.721-202.67,202.457-396.343,138.956c32.433,243.9,55.034,482.58,77.131,724.882
							c130.251,40.576,224.303,67.215,298.06-81.083c83.419-167.723,125.998-267.28,328.256-307.885
							c202.258-40.605,355.994-188.568,289.167-383.686c-70.326-205.33,107.947-471.566-63.275-621.555
							C2898.83,694.992,2719.813,1217.303,2664.179,1486.711z"/>
						<g>
							<defs>
								<path id="SVGID_00000124128893467634873320000005813850960389610377_" d="M2249.06,2303.898
									c140.265,71.823,298.348,153.789,394.788-36.709c80.285-158.587,126.126-268.245,327.664-306.139
									c201.538-37.894,355.78-189.646,289.052-383.102c-70.22-203.582,107.21-474.265-63.407-621.463
									c-297.29-256.486-479.033,251.722-532.44,534.172c-53.407,282.451-231.8,156.321-412.813,145.599
									C2004.784,1621.618,2135.731,2245.867,2249.06,2303.898z"/>
							</defs>
							<clipPath id="SVGID_00000019640967432784186670000003751973802002271677_">
								<use xlink:href="#SVGID_00000124128893467634873320000005813850960389610377_"  style="overflow:visible;"/>
							</clipPath>
							<g style="clip-path:url(#SVGID_00000019640967432784186670000003751973802002271677_);">
								<path style="fill:#FCFDFE;" d="M2363.372,2039.487l-1.312-2.727c200.322-96.426,364.547-182.328,502.835-335.092
									c132.191-146.029,197.108-303.655,217.064-527.06c10.41-116.535,31.023-198.783,61.284-310.962l2.922,0.791
									c-30.218,112.024-50.803,194.154-61.191,310.442c-20.02,224.113-85.166,382.266-217.834,528.823
									C2728.482,1856.871,2563.997,1942.915,2363.372,2039.487z"/>
								<path style="fill:#FCFDFE;" d="M2616.689,2361.893c-45.958-56.64-95.505-102.721-151.473-140.876
									c-28.497-19.425-57.804-32.656-93.04-46.546l1.11-2.817c35.425,13.963,64.905,27.277,93.636,46.862
									c56.213,38.322,105.972,84.597,152.119,141.469L2616.689,2361.893z"/>
								<path style="fill:#FCFDFE;" d="M2777.433,1791.907l-1.318-2.727c152.188-73.611,340.96-90.947,531.545-48.819l-0.652,2.956
									C3117.081,1701.338,2929.01,1718.594,2777.433,1791.907z"/>
								<path style="fill:#FCFDFE;" d="M3038.841,1413.919l-3.005-0.368c2.351-19.345-23.198-183.65-47.892-330.967
									c-27.812-165.905-53.918-307.76-58.198-316.219l2.703-1.367c4.986,9.862,33.65,168.966,58.481,317.087
									C3015.66,1229.609,3041.232,1394.251,3038.841,1413.919z"/>
							</g>
						</g>
					</g>
				</g>
			</g>
		</g>
		<g>
			
				<linearGradient id="SVGID_00000107547572063975573390000014078322461632756127_" gradientUnits="userSpaceOnUse" x1="-53.8281" y1="1969.3918" x2="925.1368" y2="1969.3918">
				<stop  offset="0" style="stop-color:#444B8C"/>
				<stop  offset="0.9964" style="stop-color:#26264F"/>
			</linearGradient>
			<path style="fill:url(#SVGID_00000107547572063975573390000014078322461632756127_);" d="M854.013,1285.052L430.345,2620.558
				c-9.289,29.281,14.173,58.598,44.778,55.953l932.131-80.559L980.377,1262.107L854.013,1285.052z"/>
			
				<linearGradient id="SVGID_00000085955130316116767120000001974158091564942208_" gradientUnits="userSpaceOnUse" x1="443.8921" y1="1969.3918" x2="1422.8568" y2="1969.3918">
				<stop  offset="0" style="stop-color:#444B8C"/>
				<stop  offset="0.9964" style="stop-color:#26264F"/>
			</linearGradient>
			<path style="fill:url(#SVGID_00000085955130316116767120000001974158091564942208_);" d="M869.616,1285.052L445.948,2620.558
				c-9.289,29.281,14.173,58.598,44.777,55.953l932.131-80.559L995.979,1262.107L869.616,1285.052z"/>
			<g>
				
					<linearGradient id="SVGID_00000021819827925237713570000010555034058379990673_" gradientUnits="userSpaceOnUse" x1="2919.0994" y1="1945.2081" x2="1096.9542" y2="2062.53">
					<stop  offset="0" style="stop-color:#444B8C"/>
					<stop  offset="0.9964" style="stop-color:#26264F"/>
				</linearGradient>
				<path style="fill:url(#SVGID_00000021819827925237713570000010555034058379990673_);" d="M3001.016,1299.899l-2102.659-42.127
					c-30.32-0.608-50.644,20.442-45.311,47.016l305.382,1521.569c5.334,26.574,33.896,46.571,63.712,44.669l2067.728-131.922
					c23.66-1.509,38.955-21.847,34.222-45.428l-270.989-1350.207C3048.368,1319.888,3025.076,1300.381,3001.016,1299.899z"/>
				
					<linearGradient id="SVGID_00000007396962912047617100000002042859755801190332_" gradientUnits="userSpaceOnUse" x1="867.7983" y1="2064.4548" x2="3340.5518" y2="2064.4548">
					<stop  offset="0" style="stop-color:#444B8C"/>
					<stop  offset="0.9964" style="stop-color:#26264F"/>
				</linearGradient>
				<path style="fill:url(#SVGID_00000007396962912047617100000002042859755801190332_);" d="M3016.618,1299.899l-2102.66-42.127
					c-30.32-0.608-50.644,20.442-45.31,47.016l305.382,1521.569c5.333,26.574,33.896,46.571,63.712,44.669l2067.728-131.922
					c23.66-1.509,38.955-21.847,34.222-45.428l-270.99-1350.207C3063.97,1319.888,3040.678,1300.381,3016.618,1299.899z"/>
				<g style="opacity:0.15;">
					<path style="fill:#97A6B7;" d="M2444.405,2117.768c-410.466-199.695-805.518-42.112-1080.899-298.097
						c-169.24-157.321-196.13-381.118-187.218-556.644l-262.329-5.256c-30.32-0.608-50.644,20.442-45.31,47.017l305.382,1521.57
						c5.333,26.573,33.895,46.57,63.711,44.667l1791.41-114.292C2840.811,2376.465,2622.832,2204.574,2444.405,2117.768z"/>
				</g>
				<path style="fill:#D8DEE8;" d="M3234.505,2687.902l-1956.331,118.464c-32.808,1.987-64.256-20.156-70.138-49.462
					l-271.721-1353.85c-5.882-29.307,16.437-52.65,49.747-52.14l1986.211,30.414c26.757,0.41,52.643,21.943,57.892,48.098
					l242.495,1208.233C3277.909,2663.813,3260.859,2686.306,3234.505,2687.902z"/>
				
					<linearGradient id="SVGID_00000155118184492869155620000016502567406436430001_" gradientUnits="userSpaceOnUse" x1="2526.228" y1="1164.061" x2="2006.1489" y2="2245.8264">
					<stop  offset="0.0036" style="stop-color:#EBEFF2"/>
					<stop  offset="1" style="stop-color:#FFFFFF"/>
				</linearGradient>
				<path style="fill:url(#SVGID_00000155118184492869155620000016502567406436430001_);" d="M3243.382,2687.364l-1954.193,118.335
					c-32.771,1.984-64.185-20.146-70.064-49.436L947.561,1403.195c-5.878-29.29,16.411-52.62,49.683-52.11l1984.041,30.381
					c26.729,0.409,52.591,21.932,57.837,48.073l242.37,1207.609C3286.739,2663.29,3269.708,2685.77,3243.382,2687.364z"/>
				
					<linearGradient id="SVGID_00000123422837652055757730000003709682315562217092_" gradientUnits="userSpaceOnUse" x1="1088.4974" y1="1493.599" x2="2954.7229" y2="1493.599">
					<stop  offset="0.0036" style="stop-color:#E38DDD"/>
					<stop  offset="1" style="stop-color:#9571F6"/>
				</linearGradient>
				<polygon style="fill:url(#SVGID_00000123422837652055757730000003709682315562217092_);" points="2954.723,1540.89 
					1105.196,1529.511 1088.497,1446.308 2939.625,1465.662 				"/>
				<g style="opacity:0.3;">
					<path style="fill:#D8DEE8;" d="M2444.405,2117.768c-410.466-199.695-805.518-42.112-1080.899-298.097
						c-140.967-131.039-183.236-308.608-188.194-465.859l-180.335-2.762c-32.023-0.49-53.475,21.959-47.817,50.145l272.366,1357.067
						c5.657,28.186,35.888,49.482,67.43,47.573l1714.158-103.8C2819.504,2359.791,2614.062,2200.307,2444.405,2117.768z"/>
				</g>
				<g>
					<path style="fill:#D8DEE8;" d="M1336.031,2687.954c-3.925,0-7.341-2.767-8.121-6.656l-213.648-1064.508
						c-0.489-2.439,0.142-4.966,1.719-6.888c1.575-1.918,3.926-3.029,6.406-3.029c0.005,0,0.009,0,0.015,0l365.815,0.629
						c3.943,0.007,7.335,2.789,8.111,6.655l209.594,1044.309c0.473,2.359-0.102,4.807-1.576,6.707
						c-1.474,1.903-3.7,3.07-6.102,3.199l-361.761,19.57C1336.332,2687.952,1336.18,2687.954,1336.031,2687.954z M1132.507,1623.464
						l210.243,1047.542l345.038-18.665l-206.376-1028.277L1132.507,1623.464z"/>
				</g>
				<g>
					<path style="fill:#D8DEE8;" d="M1740.671,2666.068c-3.925,0-7.341-2.769-8.121-6.657l-209.115-1041.916
						c-0.489-2.439,0.142-4.965,1.719-6.888c1.574-1.918,3.925-3.029,6.406-3.029c0.005,0,0.009,0,0.014,0l350.596,0.602
						c3.943,0.007,7.335,2.789,8.111,6.655l205.229,1022.558c0.473,2.36-0.102,4.807-1.575,6.708c-1.474,1.903-3.7,3.07-6.102,3.199
						l-346.71,18.756C1740.971,2666.063,1740.82,2666.068,1740.671,2666.068z M1541.679,1624.168l205.71,1024.949l329.987-17.851
						L1875.364,1624.74L1541.679,1624.168z"/>
				</g>
				<g>
					<path style="fill:#D8DEE8;" d="M2128.493,2645.088c-3.925,0-7.341-2.769-8.121-6.657l-204.769-1020.264
						c-0.489-2.439,0.143-4.965,1.719-6.888c1.574-1.918,3.926-3.029,6.406-3.029c0.005,0,0.009,0,0.015,0l336.305,0.577
						c3.942,0.007,7.335,2.789,8.111,6.655l201.043,1001.698c0.473,2.359-0.102,4.807-1.576,6.707
						c-1.474,1.903-3.701,3.07-6.102,3.199l-332.579,17.989C2128.794,2645.084,2128.643,2645.088,2128.493,2645.088z
						 M1933.848,1624.84l201.364,1003.298l315.855-17.084l-197.825-985.666L1933.848,1624.84z"/>
				</g>
				<g>
					<path style="fill:#D8DEE8;" d="M2500.526,2624.964c-3.925,0-7.341-2.769-8.121-6.658l-200.6-999.493
						c-0.489-2.439,0.142-4.965,1.719-6.888c1.575-1.918,3.926-3.029,6.407-3.029c0.004,0,0.009,0,0.015,0l322.871,0.552
						c3.942,0.007,7.335,2.789,8.111,6.655l197.022,981.669c0.473,2.359-0.102,4.807-1.576,6.707
						c-1.474,1.903-3.701,3.07-6.102,3.199l-319.293,17.272C2500.827,2624.959,2500.675,2624.964,2500.526,2624.964z
						 M2310.05,1625.487l197.194,982.526l302.569-16.367l-193.805-965.637L2310.05,1625.487z"/>
				</g>
				<g>
					<path style="fill:#D8DEE8;" d="M2857.713,2605.643c-3.925,0-7.341-2.769-8.121-6.658l-196.598-979.552
						c-0.489-2.439,0.143-4.966,1.719-6.888c1.574-1.918,3.926-3.029,6.406-3.029c0.004,0,0.009,0,0.015,0l310.228,0.532
						c3.943,0.007,7.335,2.789,8.111,6.655l193.161,962.425c0.473,2.36-0.102,4.807-1.576,6.708
						c-1.474,1.902-3.701,3.07-6.102,3.199l-306.791,16.595C2858.014,2605.638,2857.862,2605.643,2857.713,2605.643z
						 M2671.239,1626.107l193.193,962.585l290.066-15.69l-189.943-946.393L2671.239,1626.107z"/>
				</g>
				
					<linearGradient id="SVGID_00000143612576144247298010000015564303911117652382_" gradientUnits="userSpaceOnUse" x1="-86.356" y1="1783.3135" x2="212.8366" y2="1783.3135" gradientTransform="matrix(1 0 0.1982 0.9876 907.0222 -56.8269)">
					<stop  offset="0" style="stop-color:#AA80F9"/>
					<stop  offset="0.9964" style="stop-color:#6165D7"/>
				</linearGradient>
				<polygon style="opacity:0.15;fill:url(#SVGID_00000143612576144247298010000015564303911117652382_);" points="
					1483.997,1757.619 1185.153,1759.347 1163.09,1649.418 1462.278,1649.4 				"/>
				
					<linearGradient id="SVGID_00000030459063791340225500000017723131868214623886_" gradientUnits="userSpaceOnUse" x1="321.2579" y1="1782.1095" x2="608.0024" y2="1782.1095" gradientTransform="matrix(1 0 0.1982 0.9876 907.0222 -56.8269)">
					<stop  offset="0" style="stop-color:#AA80F9"/>
					<stop  offset="0.9964" style="stop-color:#6165D7"/>
				</linearGradient>
				<polygon style="opacity:0.15;fill:url(#SVGID_00000030459063791340225500000017723131868214623886_);" points="
					1878.705,1755.337 1592.294,1756.993 1570.699,1649.394 1857.439,1649.376 				"/>
				
					<linearGradient id="SVGID_00000156562304312358158820000010147185812499202450_" gradientUnits="userSpaceOnUse" x1="711.959" y1="1780.9558" x2="987.0168" y2="1780.9558" gradientTransform="matrix(1 0 0.1982 0.9876 907.0222 -56.8269)">
					<stop  offset="0" style="stop-color:#AA80F9"/>
					<stop  offset="0.9964" style="stop-color:#6165D7"/>
				</linearGradient>
				<polygon style="opacity:0.15;fill:url(#SVGID_00000156562304312358158820000010147185812499202450_);" points="
					2257.28,1753.149 1982.543,1754.737 1961.395,1649.37 2236.448,1649.353 				"/>
				
					<linearGradient id="SVGID_00000168804650793473815520000012197784294275109268_" gradientUnits="userSpaceOnUse" x1="1086.7793" y1="1779.8486" x2="1350.8502" y2="1779.8486" gradientTransform="matrix(1 0 0.1982 0.9876 907.0222 -56.8269)">
					<stop  offset="0" style="stop-color:#AA80F9"/>
					<stop  offset="0.9964" style="stop-color:#6165D7"/>
				</linearGradient>
				<polygon style="opacity:0.15;fill:url(#SVGID_00000168804650793473815520000012197784294275109268_);" points="
					2620.692,1751.048 2356.929,1752.572 2336.211,1649.347 2600.277,1649.331 				"/>
				
					<linearGradient id="SVGID_00000049940682116796424840000003471951935720417680_" gradientUnits="userSpaceOnUse" x1="2314.8013" y1="1684.3429" x2="2897.7417" y2="2208.6226">
					<stop  offset="0.0036" style="stop-color:#E38DDD"/>
					<stop  offset="1" style="stop-color:#9571F6"/>
				</linearGradient>
				<polygon style="fill:url(#SVGID_00000049940682116796424840000003471951935720417680_);" points="2655.17,1922.836 
					2391.918,1926.909 2365.676,1796.157 2629.312,1793.995 				"/>
				
					<linearGradient id="SVGID_00000065774084398488099390000004529480173555837373_" gradientUnits="userSpaceOnUse" x1="1146.3405" y1="1671.7808" x2="1770.955" y2="2233.541">
					<stop  offset="0" style="stop-color:#FFC444"/>
					<stop  offset="0.9964" style="stop-color:#F36F56"/>
				</linearGradient>
				<polygon style="fill:url(#SVGID_00000065774084398488099390000004529480173555837373_);" points="1515.078,1922.836 
					1225.6,1926.909 1196.744,1796.157 1486.644,1793.995 				"/>
				
					<linearGradient id="SVGID_00000155858966202433319440000014842103410370080911_" gradientUnits="userSpaceOnUse" x1="1546.703" y1="1671.7808" x2="2171.3174" y2="2233.541">
					<stop  offset="0.0036" style="stop-color:#E38DDD"/>
					<stop  offset="1" style="stop-color:#9571F6"/>
				</linearGradient>
				<polygon style="fill:url(#SVGID_00000155858966202433319440000014842103410370080911_);" points="1915.441,1922.836 
					1625.963,1926.909 1597.106,1796.157 1887.006,1793.995 				"/>
				
					<linearGradient id="SVGID_00000044882425449723819830000018422695883696975746_" gradientUnits="userSpaceOnUse" x1="1941.8976" y1="1680.7115" x2="2536.8845" y2="2215.8257">
					<stop  offset="0" style="stop-color:#FFC444"/>
					<stop  offset="0.9964" style="stop-color:#F36F56"/>
				</linearGradient>
				<polygon style="fill:url(#SVGID_00000044882425449723819830000018422695883696975746_);" points="2290.467,1922.836 
					2019.634,1926.909 1992.636,1796.157 2263.864,1793.995 				"/>
				
					<linearGradient id="SVGID_00000105412184112567798280000002672426409499809667_" gradientUnits="userSpaceOnUse" x1="1184.0099" y1="1847.1774" x2="1808.6245" y2="2408.9377">
					<stop  offset="0.0036" style="stop-color:#E38DDD"/>
					<stop  offset="1" style="stop-color:#9571F6"/>
				</linearGradient>
				<polygon style="fill:url(#SVGID_00000105412184112567798280000002672426409499809667_);" points="1552.748,2098.233 
					1263.27,2102.306 1234.413,1971.553 1524.313,1969.392 				"/>
				
					<linearGradient id="SVGID_00000075134287904844839170000004735244537901739191_" gradientUnits="userSpaceOnUse" x1="1224.0338" y1="2040.6918" x2="1848.6484" y2="2602.4521">
					<stop  offset="0" style="stop-color:#FFC444"/>
					<stop  offset="0.9964" style="stop-color:#F36F56"/>
				</linearGradient>
				<polygon style="fill:url(#SVGID_00000075134287904844839170000004735244537901739191_);" points="1592.772,2291.747 
					1303.293,2295.82 1274.437,2165.068 1564.337,2162.906 				"/>
				
					<linearGradient id="SVGID_00000116927494922927578750000013809949940474394514_" gradientUnits="userSpaceOnUse" x1="2669.2458" y1="1681.6057" x2="3247.9739" y2="2202.0969">
					<stop  offset="0" style="stop-color:#FFC444"/>
					<stop  offset="0.9964" style="stop-color:#F36F56"/>
				</linearGradient>
				<polygon style="fill:url(#SVGID_00000116927494922927578750000013809949940474394514_);" points="3008.192,1917.223 
					2744.94,1921.192 2718.698,1793.785 2982.333,1791.679 				"/>
				
					<linearGradient id="SVGID_00000146488150248056533460000015079628162068263074_" gradientUnits="userSpaceOnUse" x1="2700.4409" y1="1839.1117" x2="3279.1689" y2="2359.6028">
					<stop  offset="0.0036" style="stop-color:#E38DDD"/>
					<stop  offset="1" style="stop-color:#9571F6"/>
				</linearGradient>
				<polygon style="fill:url(#SVGID_00000146488150248056533460000015079628162068263074_);" points="3039.387,2074.729 
					2776.135,2078.698 2749.893,1951.291 3013.529,1949.185 				"/>
				
					<linearGradient id="SVGID_00000107558792910444197500000002694569493902119305_" gradientUnits="userSpaceOnUse" x1="1446.6674" y1="1778.786" x2="1700.3965" y2="1778.786" gradientTransform="matrix(1 0 0.1982 0.9876 907.0222 -56.8269)">
					<stop  offset="0" style="stop-color:#AA80F9"/>
					<stop  offset="0.9964" style="stop-color:#6165D7"/>
				</linearGradient>
				<polygon style="opacity:0.15;fill:url(#SVGID_00000107558792910444197500000002694569493902119305_);" points="
					2969.833,1749.03 2716.4,1750.495 2696.095,1649.325 2949.82,1649.31 				"/>
			</g>
		</g>
		<g>
			
				<linearGradient id="SVGID_00000124868507040903580330000004819909360414565277_" gradientUnits="userSpaceOnUse" x1="-2547.1006" y1="1006.5258" x2="-2355.0786" y2="1006.5258" gradientTransform="matrix(-1 0 0 1 -1104.5378 0)">
				<stop  offset="0" style="stop-color:#FFC444"/>
				<stop  offset="0.9964" style="stop-color:#F36F56"/>
			</linearGradient>
			<path style="fill:url(#SVGID_00000124868507040903580330000004819909360414565277_);" d="M1282.621,807.251
				c24.177-7.061,56.489,37.332,83.351,74.237c40.187,55.212,87.139,119.719,74.49,197.179
				c-12.444,76.208-77.779,135.56-96.398,127.07c-15.926-7.261,14.694-58.517-8.763-127.07
				c-18.928-55.317-50.289-55.337-71.32-109.57C1237.879,901.79,1252.878,815.939,1282.621,807.251z"/>
			
				<linearGradient id="SVGID_00000145019161383191534760000012901076983915156137_" gradientUnits="userSpaceOnUse" x1="-1876.1914" y1="1367.0624" x2="-1503.8209" y2="1367.0624" gradientTransform="matrix(-1 0 0 1 -102.9487 0)">
				<stop  offset="0" style="stop-color:#311944"/>
				<stop  offset="1" style="stop-color:#A03976"/>
			</linearGradient>
			<path style="fill:url(#SVGID_00000145019161383191534760000012901076983915156137_);" d="M1294.584,1158.275
				c124.523,30.231,206.544,78.76,254.446,113.087c25.961,18.604,37.953,30.208,44.427,47.12
				c36.886,96.38-152.626,242.108-172.822,257.369c-8.822-20.569-17.643-41.139-26.464-61.709
				c19.582-107.484,52.184-141.205,79.467-151.233c7.631-2.805,20.443-5.813,20.194-9.424c-0.588-8.539-72.57,3.63-141.359-21.54
				c-68.593-25.099-137.508-88.603-125.203-130.589C1229.517,1193.692,1238.926,1171.537,1294.584,1158.275z"/>
			
				<linearGradient id="SVGID_00000095305316809195487980000014180771103384400286_" gradientUnits="userSpaceOnUse" x1="4545.4604" y1="883.4638" x2="4561.5562" y2="1173.183" gradientTransform="matrix(0.9565 0.2918 -0.2918 0.9565 -2636.6191 -392.2555)">
				<stop  offset="0" style="stop-color:#444B8C"/>
				<stop  offset="0.9964" style="stop-color:#26264F"/>
			</linearGradient>
			<path style="fill:url(#SVGID_00000095305316809195487980000014180771103384400286_);" d="M1415.33,1862.748
				c0,0-11.592,4.129-11.634,13.296c-0.043,9.166,11.741,49.547,24.542,63.895c12.801,14.347,13.946-7.058,13.154-20.846
				c-0.791-13.789-4.147-44.655-7.313-50.624C1430.915,1862.502,1415.33,1862.748,1415.33,1862.748z"/>
			
				<linearGradient id="SVGID_00000041289207787564489050000012829090630844051362_" gradientUnits="userSpaceOnUse" x1="-1701.1534" y1="1381.0724" x2="-1328.7833" y2="1381.0724" gradientTransform="matrix(-1 0 0 1 -102.9487 0)">
				<stop  offset="0" style="stop-color:#311944"/>
				<stop  offset="1" style="stop-color:#A03976"/>
			</linearGradient>
			<path style="fill:url(#SVGID_00000041289207787564489050000012829090630844051362_);" d="M1452.548,1299.185
				c22.625-0.444,75.636-4.666,89.751,21.54c11.775,21.864-8.854,55.007-21.541,75.391c-34.49,55.419-67.967,61.088-91.547,95.137
				c-9.126,13.18-17.396,31.588-20.028,57.89c-5.005-11.668-10.008-23.335-15.011-35.003
				c19.582-107.483,52.184-141.205,79.467-151.231c7.631-2.805,20.443-5.813,20.194-9.424c-0.588-8.54-72.57,3.63-141.359-21.54
				c-62.527-22.879-125.112-77.626-126.408-118.942C1325.078,1284.019,1399.599,1300.223,1452.548,1299.185z"/>
			<path style="fill:#FFFFFF;" d="M1408.632,1823.797c0.683,14.127,1.882,25.938,2.963,34.708
				c2.392,19.404,4.591,27.082,7.603,34.076c2.628,6.093,9.194,19.386,12.329,18.464c3.186-0.935-0.092-15.662-2.573-56.62
				c-0.361-5.945-1.456-24.87-1.456-24.87l0,0L1408.632,1823.797z"/>
			
				<linearGradient id="SVGID_00000113346035006413756990000004043635601656651663_" gradientUnits="userSpaceOnUse" x1="-1677.3588" y1="1135.8611" x2="-1343.4825" y2="1541.5383" gradientTransform="matrix(-1 0 0 1 -102.9487 0)">
				<stop  offset="0" style="stop-color:#311944"/>
				<stop  offset="1" style="stop-color:#A03976"/>
			</linearGradient>
			<path style="fill:url(#SVGID_00000113346035006413756990000004043635601656651663_);" d="M1222.783,1166.353
				c71.745,43.257,118.32,92.439,145.398,125.652c31.966,39.208,80.588,98.848,98.192,187.776
				c9.384,47.401,4.766,89.922-4.851,173.025c-9.553,82.539-23.245,149.737-33.958,195.631c-5.517,2.215-11.033,4.43-16.549,6.644
				c-14.779-27.15-34.109-70.129-41.039-125.089c-11.338-89.918,22.301-118.492,6.154-182.26
				c-13.986-55.241-54.513-89.113-135.563-156.857c-66.594-55.658-127.997-88.68-150.789-158.104
				c-3.872-11.789-7.161-26.251-0.851-39.493C1102.524,1164.741,1154.553,1154.784,1222.783,1166.353z"/>
			
				<linearGradient id="SVGID_00000124853788366989185570000008375249684311703979_" gradientUnits="userSpaceOnUse" x1="-678.8489" y1="516.3594" x2="-1120.4288" y2="886.1384" gradientTransform="matrix(-0.9987 -0.0509 -0.0509 0.9987 -8.7567 27.2223)">
				<stop  offset="0" style="stop-color:#444B8C"/>
				<stop  offset="0.9964" style="stop-color:#26264F"/>
			</linearGradient>
			<path style="fill:url(#SVGID_00000124853788366989185570000008375249684311703979_);" d="M1165.512,812.395
				c18.623-4.006,49.248-3.21,78.445-26.201c8.79-6.921,39.928-31.442,36.147-66.526c-3.328-30.887-32.602-47.486-36.194-49.463
				c-20.724-11.406-41.384-8.871-64.297-5.738c-29.712,4.063-39.581,12.179-60.227,17.746
				c-51.077,13.767-68.35-14.97-119.776-12.544c-65.728,3.098-71.413,51.641-126.713,52.852
				c-62.081,1.359-73.979-59.399-135.273-69.693c-85.078-14.289-213.803,77.299-211.211,182.881
				c1.497,60.98,46.905,130.867,104.903,151.848c33.806,12.229,70.286,8.345,80.698,30.329c7.411,15.645-9.249,27.699-7.674,54.958
				c2.025,35.143,32.282,59.804,37.168,63.786c45.355,36.969,147.042,18.295,216.481-34.016
				C1083.21,1008.281,1064.259,834.181,1165.512,812.395z"/>
			
				<linearGradient id="SVGID_00000047751025109283119270000011450146753623707064_" gradientUnits="userSpaceOnUse" x1="998.8818" y1="1147.8868" x2="1357.4932" y2="825.4651">
				<stop  offset="0" style="stop-color:#FFC444"/>
				<stop  offset="0.9964" style="stop-color:#F36F56"/>
			</linearGradient>
			<path style="fill:url(#SVGID_00000047751025109283119270000011450146753623707064_);" d="M1021.678,799.86
				c42.176-5.196,90.821-9.152,144.877-9.886c114.224-1.551,130.576,12.932,134.76,23.654c7.801,19.987-5.562,30.004,2.026,64.854
				c4.537,20.838,0.248,30.334,9.019,52.723c8.548,21.82,1.843,33.551-5.715,84.715c-9.664,65.424-14.123,98.675,4.185,125.049
				c12.72,18.325,26.952,19.877,25.596,28.582c-2.89,18.546-67.013,8.318-148.199,43.921
				c-23.502,10.305-45.135,23.007-63.275,33.657c-42.478,24.938-50.337,34.474-70.007,45.772
				c-62.208,35.734-155.655,39.177-204.633-4.039c-18.259-16.112-31.567-39.796-25.579-48.465
				c8.154-11.804,44.621,15.008,78.084-1.347c22.168-10.835,17.956-28.363,43.586-49.015c30.844-24.856,52.288-11.832,73.282-28.004
				c32.749-25.228,17.851-85.631,8.658-186.903C1024.539,933.204,1020.722,873.339,1021.678,799.86z"/>
			<path style="fill:#F4F7FA;" d="M1145.292,776.332c-15.579,9.664-40.761,22.296-43.535,25.725
				c-2.773,3.424,76.291,16.963,125.488-7.863c0,0,7.626-4.237-22.031-10.168c-6.319-1.264-5.084-13.558-4.237-26.268l-5.931-11.016
				C1195.045,746.742,1160.868,766.662,1145.292,776.332z"/>
			<path style="fill:#F4F7FA;" d="M1184.593,739.258c0,0-6.111,25.925,16.72,38.737c20.444,11.475,55.03-35.56,48.57-53.039
				c-2.154-5.831-9.852-13.325-17.898-15.843c-5.659-1.772-27.07-1.089-36.24,16.938c-2.402-5.271-6.703-8.034-9.593-7.167
				c-3.667,1.095-4.205,7.771-4.33,9.282C1181.398,733.408,1183.512,737.474,1184.593,739.258z"/>
			
				<linearGradient id="SVGID_00000150066797441134758830000004441365335795335050_" gradientUnits="userSpaceOnUse" x1="1010.663" y1="1160.99" x2="1369.276" y2="838.5668">
				<stop  offset="0" style="stop-color:#FFC444"/>
				<stop  offset="0.9964" style="stop-color:#F36F56"/>
			</linearGradient>
			<path style="opacity:0.3;fill:url(#SVGID_00000150066797441134758830000004441365335795335050_);" d="M1219.994,1154.844
				c-23.522,9.749-26.697,30.819-59.22,42.77c-31.025,11.4-41.435-2.885-72.38,6.58c-46.478,14.217-64.249,59.064-71.284,54.833
				c-6.445-3.876-0.264-46.778,29.61-74.574c34.309-31.922,71.262-17.303,93.217-50.446c8.542-12.895,15.128-33.496,7.677-49.35
				c-10.098-21.485-36.471-14.034-50.447-31.804c-25.11-31.925,33.651-89.507,17.547-138.181
				c-6.427-19.425-26.891-43.772-92.886-60.069c0.896,48.789,3.707,89.562,6.517,120.524
				c9.193,101.272,24.091,161.676-8.658,186.903c-20.994,16.173-42.438,3.149-73.282,28.005
				c-25.63,20.652-21.418,38.18-43.586,49.015c-33.463,16.354-69.929-10.457-78.084,1.346c-5.988,8.67,7.32,32.354,25.579,48.466
				c48.978,43.215,142.425,39.772,204.633,4.04c19.67-11.299,27.529-20.836,70.007-45.773c18.14-10.651,39.773-23.352,63.275-33.658
				c56.974-24.986,105.511-27.404,130.412-33.032C1269.203,1147.474,1239.086,1146.931,1219.994,1154.844z"/>
			<g>
				
					<linearGradient id="SVGID_00000066487692024185208960000003968867712760513719_" gradientUnits="userSpaceOnUse" x1="1148.4265" y1="1217.71" x2="1430.8076" y2="1217.71">
					<stop  offset="0.0036" style="stop-color:#E38DDD"/>
					<stop  offset="1" style="stop-color:#9571F6"/>
				</linearGradient>
				<path style="fill:url(#SVGID_00000066487692024185208960000003968867712760513719_);" d="M1423.892,1196.723l-258.352,12.571
					c-3.556,0.175-6.8,2.079-8.681,5.1l-7.149,11.474c-3.557,5.711,0.717,13.078,7.443,12.822l273.655-10.425L1423.892,1196.723z"/>
				
					<linearGradient id="SVGID_00000026154497578432407320000001509178920250425479_" gradientUnits="userSpaceOnUse" x1="1314.2345" y1="1142.4086" x2="1701.8245" y2="1142.4086">
					<stop  offset="0.0036" style="stop-color:#E38DDD"/>
					<stop  offset="1" style="stop-color:#9571F6"/>
				</linearGradient>
				<path style="fill:url(#SVGID_00000026154497578432407320000001509178920250425479_);" d="M1692.598,1052.855l-266.905,5.172
					c-7.898,0.153-15.13,4.455-19.032,11.322l-92.427,162.615l281.885-11.231c7.737-0.308,14.797-4.497,18.774-11.142
					l85.633-143.061C1704.172,1060.441,1699.695,1052.718,1692.598,1052.855z"/>
				
					<linearGradient id="SVGID_00000150100164968514128310000011834296076920088987_" gradientUnits="userSpaceOnUse" x1="128.8887" y1="1039.5822" x2="314.026" y2="1223.2384" gradientTransform="matrix(-1 0 0 1 1740.2787 0)">
					<stop  offset="0.0036" style="stop-color:#E38DDD"/>
					<stop  offset="1" style="stop-color:#9571F6"/>
				</linearGradient>
				<path style="opacity:0.3;fill:url(#SVGID_00000150100164968514128310000011834296076920088987_);" d="M1406.66,1069.35
					c3.903-6.868,11.135-11.17,19.033-11.323l5.849-0.113c0.872,8.616,3.516,16.497,8.788,22.86
					c16.458,19.865,43.801,7.612,64.182,28.636c22.387,23.093,1.706,50.585,21.721,72.079c21.069,22.622,55.137,4.203,94.3,18.681
					l-5.64,9.421c-3.977,6.645-11.037,10.834-18.774,11.142l-281.885,11.231L1406.66,1069.35z"/>
			</g>
			<g>
				
					<linearGradient id="SVGID_00000085218869377325473020000000256902205956274352_" gradientUnits="userSpaceOnUse" x1="1147.4841" y1="1145.4772" x2="873.6251" y2="876.0002">
					<stop  offset="0" style="stop-color:#FFC444"/>
					<stop  offset="0.9964" style="stop-color:#F36F56"/>
				</linearGradient>
				<path style="fill:url(#SVGID_00000085218869377325473020000000256902205956274352_);" d="M1197.492,1188.09
					c3.364-8.88,6.726-17.758,10.089-26.641c-37.164-10.189-88.564-25.244-141.285-44.082
					c-13.027-4.655-17.795-10.672-21.279-15.294c-27.03-35.848,41.757-99.089,40.525-181.149
					c-0.854-56.883-35.34-121.951-65.726-122.689c-61.767-1.501-197.956,260.587-83.253,372.448
					C993.493,1226.204,1099.856,1232.647,1197.492,1188.09z"/>
			</g>
			<path style="fill:#F4F7FA;" d="M1207.58,1161.45c23.332-12.394,51.26,0.31,53.059,1.161c5.127,2.419,12.588,6.731,20.126,14.431
				c0.853,1.163,10.974,15.187,7.286,19.68c-2.955,3.6-14.4,0.616-28.156-7.939c-5.766-0.809-14.349-1.551-24.632-0.604
				c-18.884,1.742-27.534,7.708-34.389,2.558c-5.02-3.769-6.73-11.74-4.924-17.666
				C1197.891,1166.706,1203.631,1163.549,1207.58,1161.45z"/>
		</g>
		<g>
			
				<linearGradient id="SVGID_00000150800173989418901680000008914055999017527175_" gradientUnits="userSpaceOnUse" x1="4963.624" y1="3647.7439" x2="5006.3701" y2="3685.7668" gradientTransform="matrix(0.9902 -0.14 0.14 0.9902 -2711.9221 206.9384)">
				<stop  offset="0" style="stop-color:#444B8C"/>
				<stop  offset="0.9964" style="stop-color:#26264F"/>
			</linearGradient>
			<path style="fill:url(#SVGID_00000150800173989418901680000008914055999017527175_);" d="M2725.762,3143.367
				c1.216-6.701,22.857-12.767,33.572-3.791c5.321,4.457,8.985,13.491,5.907,17.571c-1.121,1.484,3.467,4.095-0.928,4.146
				C2749.735,3161.463,2724.552,3150.027,2725.762,3143.367z"/>
			
				<linearGradient id="SVGID_00000111870590956009510960000006148166077020523684_" gradientUnits="userSpaceOnUse" x1="4771.7529" y1="3450.856" x2="4771.7529" y2="3376.3887" gradientTransform="matrix(0.9988 0.0498 -0.0498 0.9988 -1835.4758 -528.7908)">
				<stop  offset="0" style="stop-color:#FFC444"/>
				<stop  offset="0.9964" style="stop-color:#F36F56"/>
			</linearGradient>
			<path style="fill:url(#SVGID_00000111870590956009510960000006148166077020523684_);" d="M2749.426,3143.403l22.45,1.12
				c-7.778-14.14,1.573-52.6,1.573-52.6l-24.241,0.711c0,0,0.597,11.166,2.074,27.751
				C2751.789,3126.063,2750.856,3134.616,2749.426,3143.403z"/>
			
				<linearGradient id="SVGID_00000028316912085120458880000007815456012937856129_" gradientUnits="userSpaceOnUse" x1="4967.9219" y1="3642.9143" x2="5010.6675" y2="3680.9363" gradientTransform="matrix(0.9902 -0.14 0.14 0.9902 -2711.9221 206.9384)">
				<stop  offset="0" style="stop-color:#444B8C"/>
				<stop  offset="0.9964" style="stop-color:#26264F"/>
			</linearGradient>
			<path style="fill:url(#SVGID_00000028316912085120458880000007815456012937856129_);" d="M2746.471,3143.064
				c0,0,26.795-6.174,29.693-0.859c2.899,5.316,5.149,19.547-11.851,19.088C2747.312,3160.835,2744.961,3147.572,2746.471,3143.064z
				"/>
			
				<linearGradient id="SVGID_00000080167924809380392820000016741999067564923016_" gradientUnits="userSpaceOnUse" x1="5041.4727" y1="3171.1399" x2="5084.2202" y2="3209.1641" gradientTransform="matrix(1 0 0 1 -2609.0793 0)">
				<stop  offset="0" style="stop-color:#444B8C"/>
				<stop  offset="0.9964" style="stop-color:#26264F"/>
			</linearGradient>
			<path style="fill:url(#SVGID_00000080167924809380392820000016741999067564923016_);" d="M2441.586,3191.973
				c2.143-6.464,24.42-9.442,33.774,0.945c4.643,5.156,7.008,14.615,3.388,18.223c-1.317,1.314,2.859,4.542-1.5,3.977
				C2462.791,3213.246,2439.456,3198.396,2441.586,3191.973z"/>
			
				<linearGradient id="SVGID_00000037676048972133037170000010822610018712878514_" gradientUnits="userSpaceOnUse" x1="4836.3813" y1="2916.6243" x2="4836.3813" y2="2842.1548" gradientTransform="matrix(0.9813 0.1926 -0.1926 0.9813 -1708.8574 -582.0115)">
				<stop  offset="0" style="stop-color:#FFC444"/>
				<stop  offset="0.9964" style="stop-color:#F36F56"/>
			</linearGradient>
			<path style="fill:url(#SVGID_00000037676048972133037170000010822610018712878514_);" d="M2467.911,3198.2l22.056,4.328
				c-5.669-15.11,9.104-51.83,9.104-51.83l-24.093-2.774c0,0-1.012,11.136-1.927,27.762
				C2472.736,3181.378,2470.586,3189.709,2467.911,3198.2z"/>
			
				<linearGradient id="SVGID_00000104707110607281559620000016462045082361651089_" gradientUnits="userSpaceOnUse" x1="5045.77" y1="3166.3098" x2="5088.5171" y2="3204.3335" gradientTransform="matrix(1 0 0 1 -2609.0793 0)">
				<stop  offset="0" style="stop-color:#444B8C"/>
				<stop  offset="0.9964" style="stop-color:#26264F"/>
			</linearGradient>
			<path style="fill:url(#SVGID_00000104707110607281559620000016462045082361651089_);" d="M2462.133,3194.571
				c0,0,27.396-2.362,29.522,3.307c2.126,5.667,2.362,20.073-14.407,17.24C2460.479,3212.285,2460.007,3198.822,2462.133,3194.571z"
				/>
			
				<linearGradient id="SVGID_00000000185334272444568220000002031322785116527241_" gradientUnits="userSpaceOnUse" x1="2664.7729" y1="2759.6692" x2="2841.4077" y2="2759.6692">
				<stop  offset="0" style="stop-color:#311944"/>
				<stop  offset="1" style="stop-color:#6B3976"/>
			</linearGradient>
			<path style="fill:url(#SVGID_00000000185334272444568220000002031322785116527241_);" d="M2664.773,2421.843
				c6.008,102.715,14.419,209.525,25.75,320.063c13.126,128.058,29.073,250.415,46.954,366.705c22.042,7.559,42.412,0,42.412,0
				s25.772-42.212,45.44-154.402c12.619-71.985,13.49-71.078,13.632-83.634c0.713-63.353-21.512-81.694-25.75-138.319
				c-3.92-52.39,12.756-68.081,22.72-127.06c7.662-45.353,10.534-111.446-13.632-197.827
				C2769.791,2412.193,2717.282,2417.018,2664.773,2421.843z"/>
			
				<linearGradient id="SVGID_00000182512494541277231550000002617346816902971543_" gradientUnits="userSpaceOnUse" x1="2664.7729" y1="2759.6692" x2="2827.021" y2="2759.6692">
				<stop  offset="0" style="stop-color:#311944"/>
				<stop  offset="1" style="stop-color:#6B3976"/>
			</linearGradient>
			<path style="opacity:0.3;fill:url(#SVGID_00000182512494541277231550000002617346816902971543_);" d="M2664.773,2421.844
				c6.008,102.714,14.419,209.525,25.75,320.062c13.126,128.058,29.073,250.415,46.955,366.705c22.042,7.559,42.411,0,42.411,0
				c-0.28-10.765-1.031-26.984-3.279-46.576c-5.962-51.969-15.465-66.756-16.441-98.646c-1.247-40.785,13.52-42.041,16.441-82.205
				c4.529-62.254-29.655-77.017-32.882-131.528c-3.41-57.596,32.654-76.55,60.284-147.969
				c16.31-42.16,30.786-105.458,18.289-194.318C2769.791,2412.193,2717.282,2417.018,2664.773,2421.844z"/>
			
				<linearGradient id="SVGID_00000106134850874457586590000000218292219069827235_" gradientUnits="userSpaceOnUse" x1="2991.5266" y1="2880.562" x2="2505.6052" y2="2792.877">
				<stop  offset="0" style="stop-color:#311944"/>
				<stop  offset="0.7407" style="stop-color:#5C3169"/>
				<stop  offset="1" style="stop-color:#6B3976"/>
			</linearGradient>
			<path style="fill:url(#SVGID_00000106134850874457586590000000218292219069827235_);" d="M2554.201,2418.627
				c-30.18,101.665-59.43,227.945-75.734,374.746c-15.824,142.473-15.536,268.999-9.088,373.138
				c9.594,2.681,19.186,5.361,28.779,8.042c55.781-58.363,75.698-112.006,83.308-151.185c11.258-57.956-5.705-77.607,9.088-143.144
				c3.403-15.076,8.191-31.269,63.616-139.926c52.899-103.706,63.746-118.768,72.705-156.01
				c12.789-53.16,9.415-100.305,4.544-131.886C2672.347,2441.144,2613.275,2429.885,2554.201,2418.627z"/>
			<g>
				<path style="fill:#26264F;" d="M2316.335,2198.892l-94.658-221.734c-4.729-11.078,1.621-23.751,13.326-26.595l173.393-42.11
					c9.371-2.276,18.998,2.644,22.644,11.571l87.065,213.114c4.336,10.613-1.379,22.657-12.341,26.011l-165.799,50.73
					C2330.438,2212.793,2320.247,2208.055,2316.335,2198.892z"/>
				
					<linearGradient id="SVGID_00000000918396766496430300000017105092798703750797_" gradientUnits="userSpaceOnUse" x1="2283.3044" y1="1608.679" x2="2603.094" y2="3239.6089">
					<stop  offset="0" style="stop-color:#AA80F9"/>
					<stop  offset="0.9964" style="stop-color:#6165D7"/>
				</linearGradient>
				<path style="fill:url(#SVGID_00000000918396766496430300000017105092798703750797_);" d="M2320.619,2188.227l-88.418-207.117
					c-4.417-10.347,1.515-22.185,12.448-24.841l161.962-39.333c8.753-2.126,17.745,2.468,21.151,10.807l81.325,199.064
					c4.049,9.913-1.287,21.162-11.528,24.296l-154.868,47.385C2333.793,2201.212,2324.273,2196.786,2320.619,2188.227z"/>
			</g>
			
				<linearGradient id="SVGID_00000141425409330987868390000001658463723433306530_" gradientUnits="userSpaceOnUse" x1="2250.2825" y1="2055.6306" x2="2414.6138" y2="2319.6099">
				<stop  offset="0" style="stop-color:#FFC444"/>
				<stop  offset="0.9964" style="stop-color:#F36F56"/>
			</linearGradient>
			<path style="fill:url(#SVGID_00000141425409330987868390000001658463723433306530_);" d="M2266.034,2127.342l-2.84-26.128
				l-15.054-28.699c-2.051-3.908-3.121-8.255-3.121-12.669v-28.498l18.176,42.033c0,0,11.928-10.793,16.473-13.064
				c4.544-2.272,3.976,6.816,0.568,10.225c-3.408,3.407,1.704,31.24-1.704,34.08l1.136,17.04L2266.034,2127.342z"/>
			
				<linearGradient id="SVGID_00000134950673477690049870000011516875977866916765_" gradientUnits="userSpaceOnUse" x1="2403.7725" y1="2196.562" x2="2896.5967" y2="2196.562">
				<stop  offset="0" style="stop-color:#FF9085"/>
				<stop  offset="1" style="stop-color:#FB6FBB"/>
			</linearGradient>
			<path style="fill:url(#SVGID_00000134950673477690049870000011516875977866916765_);" d="M2410.307,1960.916
				c14.135-34.565,44.475-54.444,60.208-64.753c37.226-24.39,61.058-19.938,146.545-32.944
				c113.93-17.335,127.567-33.76,165.857-20.448c50.298,17.486,76.57,63.143,88.609,84.065
				c60.695,105.479-10.267,159.091,7.952,369.203c7.44,85.811,26.518,160.38-19.313,204.481
				c-9.65,9.286-20.444,14.142-42.032,23.856c-85.617,38.523-162.379,31.883-209.026,27.264
				c-51.328-5.082-77.271-7.993-90.881-26.128c-21.74-28.968,0.639-65.786,4.544-129.505c2.803-45.747-7.598-81.997-28.4-154.497
				C2446.011,2072.963,2383.225,2027.139,2410.307,1960.916z"/>
			<g>
				<g>
					
						<linearGradient id="SVGID_00000028302485193661670170000007337000162914343330_" gradientUnits="userSpaceOnUse" x1="5858.4873" y1="1227.6848" x2="6046.9868" y2="1464.8409" gradientTransform="matrix(0.9663 0.2576 -0.2576 0.9663 -2744.3408 -923.8408)">
						<stop  offset="0" style="stop-color:#FFC444"/>
						<stop  offset="0.9964" style="stop-color:#F36F56"/>
					</linearGradient>
					<path style="fill:url(#SVGID_00000028302485193661670170000007337000162914343330_);" d="M2601.007,1801.044
						c-5.187-18.479,3.881-35.592,5.88-39.279c8.368-15.438,10.511-17.547,14.504-20.22l5.55-3.424c0,0,0.322-0.129,0.66-0.25
						c3.562-1.268,15.7-1.637,18.159-1.111c7.856,1.677,16.22,33.681,13.833,78.928c0.326,1.724,0.64,3.464,0.944,5.217
						c1.237,7.146,2.22,14.15,2.98,20.998c0.727,6.55,10.015,6.4,16.592,5.98c26.696-1.704,39.76,0.568,40.896,4.544
						c2.128,7.451-29.537,31.809-68.636,37.288c-52.474,0.39-95.161-5.197-90.573-13.46c2.038-3.669,42.695-14.293,54.13-24.822
						c10.469-9.643,9.616-19.596,10.478-26.723C2623.23,1823.063,2604.825,1814.658,2601.007,1801.044z"/>
					<path style="fill:#26264F;" d="M2610.659,1725.268c0.047,14.017,6.652,28.988,10.017,31.394
						c0.434,0.311,2.88,2.243,5.077,5.546c0.299,0.449,0.563,0.976,0.799,1.657c3.071,8.833-10.974,19.228-8.263,23.184
						c1.967,2.869,11.512-0.968,12.647,1.51c1.069,2.331-6.864,7.16-5.649,9.952c0.916,2.109,5.799,0.18,8.877,3.41
						c1.535,1.609,1.085,2.883,2.711,7.802c0.919,2.781,2.205,5.824,3.202,7.517c4.845,8.231,18.565,11.237,21.206,7.944
						c0.735-0.918,0.104-1.69,0.854-4.77c0,0,0.696-2.854,2.682-6.155c2.838-4.716,9.689-8.089,16.603-13.067
						c12.802-9.219,16.282-17.078,17.326-19.733c0.372-0.946,0.602-1.659,0.769-2.174c3.329-10.332,3.344-25.508-1.301-34.842
						c-7.781-15.634-25.335-8.211-39.702-23.703c-16.578-17.873-6.704-42.303-15.701-45.002
						C2632.897,1672.764,2610.573,1699.349,2610.659,1725.268z"/>
					
						<linearGradient id="SVGID_00000039100262765699742460000017271251488709515680_" gradientUnits="userSpaceOnUse" x1="5835.0576" y1="1174.9191" x2="6045.5229" y2="1439.7118" gradientTransform="matrix(0.9663 0.2576 -0.2576 0.9663 -2744.3408 -923.8408)">
						<stop  offset="0" style="stop-color:#FFC444"/>
						<stop  offset="0.9964" style="stop-color:#F36F56"/>
					</linearGradient>
					<path style="fill:url(#SVGID_00000039100262765699742460000017271251488709515680_);" d="M2623.326,1783.755
						c3.436-4.721,9.473-0.285,9.508,5.823c0.036,6.107-5.883,12.458-11.624,11.252
						C2615.468,1799.623,2618.703,1790.109,2623.326,1783.755z"/>
				</g>
				<path style="fill:#26264F;" d="M2626.113,1773.536l-7.97,10.369c0,0-8.593,12.703-13.609,5.744
					c-4.098-5.687-5.16-5.56-5.411-5.321c-0.047,0.045-0.06,0.114-0.072,0.11c-0.072-0.019,0.601-2.83,1.206-5.301
					c-2.122,3.046-5.046,7.987-6.817,14.635c-1.72,6.457-3.564,13.371,0.08,20.012c0.21,0.383,4.224,7.453,11.718,9.162
					c0,0,2.947,0.672,15.398-1.516c0,0-13.61-9.876-13.818-12.222c-0.564-6.379,8.284-9.827,14.853-22.906
					C2624.202,1781.258,2625.45,1776.684,2626.113,1773.536z"/>
			</g>
			
				<linearGradient id="SVGID_00000053507977662324790720000005199516588089897904_" gradientUnits="userSpaceOnUse" x1="2393.2329" y1="2154.074" x2="2695.4116" y2="2442.6204">
				<stop  offset="0" style="stop-color:#FF9085"/>
				<stop  offset="1" style="stop-color:#FB6FBB"/>
			</linearGradient>
			<path style="opacity:0.3;fill:url(#SVGID_00000053507977662324790720000005199516588089897904_);" d="M2653.413,2491.432
				c-15.101-30.068,21.903-70.035-2.272-115.873c-20.531-38.93-57.828-30.208-74.976-65.888
				c-20.712-43.095,24.333-75.303,22.72-140.865c-1.928-78.377-69.368-156.834-109.056-149.953
				c-25.679,4.451-28.978,42.761-47.045,84.701c15.987,35.057,34.666,78.977,51.589,137.957c20.803,72.5,31.204,108.75,28.4,154.497
				c-3.905,63.719-26.284,100.536-4.544,129.505c13.61,18.135,39.553,21.046,90.881,26.128
				c46.646,4.618,123.409,11.259,209.026-27.264c10.837-4.876,18.95-8.529,25.568-12.132
				C2709.942,2532.332,2665.39,2515.281,2653.413,2491.432z"/>
			
				<linearGradient id="SVGID_00000016759024920159264330000003955673732383675016_" gradientUnits="userSpaceOnUse" x1="2260.4312" y1="2079.8413" x2="2529.812" y2="2079.8413">
				<stop  offset="0" style="stop-color:#FF9085"/>
				<stop  offset="1" style="stop-color:#FB6FBB"/>
			</linearGradient>
			<path style="fill:url(#SVGID_00000016759024920159264330000003955673732383675016_);" d="M2260.922,2122.229
				c8.33-3.597,16.661-7.195,24.992-10.792c14.08,14.4,32.038,28.402,47.144,23.855c22.518-6.776,16.887-48.201,44.304-120.984
				c31.065-82.467,66.31-103.664,84.065-111.328c9.917-4.281,16.763-7.124,24.992-5.113c37.866,9.256,50.385,107.929,39.76,181.762
				c-5.986,41.598-17.724,123.165-84.633,161.882c-9.505,5.5-61.823,35.775-113.601,11.928
				C2283.713,2233.067,2256.38,2180.8,2260.922,2122.229z"/>
		</g>
	</g>
</g>
</svg>
